# AST/ASF file generated using VICON BodyLanguage
# -----------------------------------------------
:version 1.10
:name VICON
:units
  mass 1.0
  length 0.45
  angle deg
:documentation
   .ast/.asf automatically generated from VICON data using
   VICON BodyBuilder and BodyLanguage model FoxedUp or BRILLIANT.MOD
:root
   order TX TY TZ RX RY RZ
   axis XYZ
   position 0 0 0  
   orientation 0 0 0 
:bonedata
  begin
     id 1 
     name lhipjoint
     direction 0.623415 -0.642378 0.445763 
     length 2.49859 
     axis 0 0 0  XYZ
  end
  begin
     id 2 
     name lfemur
     direction 0.34202 -0.939693 0  
     length 6.69689  
     axis 0 0 20  XYZ
    dof rx ry rz
    limits (-160.0 20.0)
           (-70.0 70.0)
           (-60.0 70.0)
  end
  begin
     id 3 
     name ltibia
     direction 0.34202 -0.939693 0   
     length 7.37574   
     axis 0 0 20   XYZ
    dof rx
    limits (-10.0 170.0)
  end
  begin
     id 4 
     name lfoot
     direction 0.084323 -0.231675 0.969132   
     length 2.09111   
     axis -90 7.62852e-016 20   XYZ
    dof rx rz
    limits (-45.0 90.0)
           (-70.0 20.0)
  end
  begin
     id 5 
     name ltoes
     direction 1.5357e-011 -4.21957e-011 1   
     length 1.04989   
     axis -90 7.62852e-016 20   XYZ
    dof rx
    limits (-90.0 20.0)
  end
  begin
     id 6 
     name rhipjoint
     direction -0.605402 -0.653903 0.45376   
     length 2.45455  
     axis 0 0 0  XYZ 
  end
  begin
     id 7 
     name rfemur
     direction -0.34202 -0.939693 0   
     length 6.64523   
     axis 0 0 -20   XYZ
    dof rx ry rz
    limits (-160.0 20.0)
           (-70.0 70.0)
           (-70.0 60.0)
  end
  begin
     id 8 
     name rtibia
     direction -0.34202 -0.939693 0   
     length 7.3339   
     axis 0 0 -20   XYZ
    dof rx
    limits (-10.0 170.0)
 end
 begin
     id 9 
     name rfoot
     direction -0.120854 -0.332043 0.93549   
     length 2.23135  
     axis -90 -7.62852e-016 -20   XYZ
    dof rx rz
    limits (-45.0 90.0)
           (-20.0 70.0)
  end
  begin
     id 10 
     name rtoes
     direction -1.53563e-011 -4.21914e-011 1   
     length 1.10614   
     axis -90 -7.62852e-016 -20   XYZ
    dof rx
    limits (-90.0 20.0)
  end
  begin
     id 11 
     name lowerback
     direction 0.0319682 0.998615 -0.0417941   
     length 2.02718   
     axis 0 0 0   XYZ
    dof rx ry rz
    limits (-20.0 45.0)
           (-30.0 30.0)
           (-30.0 30.0)
  end
  begin
     id 12 
     name upperback
     direction 7.63181e-005 0.995808 0.0914691   
     length 1.97539   
     axis 0 0 0   XYZ
    dof rx ry rz
    limits (-20.0 45.0)
           (-30.0 30.0)
           (-30.0 30.0)
  end
  begin
     id 13 
     name thorax
     direction -0.016423 0.993627 0.111514   
     length 2.00349   
     axis 0 0 0   XYZ
    dof rx ry rz
    limits (-20.0 45.0)
           (-30.0 30.0)
           (-30.0 30.0)
  end
  begin
     id 14 
     name lowerneck
     direction -0.174763 0.981668 -0.0760716   
     length 1.71436   
     axis 0 0 0   XYZ
    dof rx ry rz
    limits (-20.0 45.0)
           (-30.0 30.0)
           (-30.0 30.0)
  end
  begin
     id 15 
     name upperneck
     direction 0.345458 0.934587 -0.0848868   
     length 1.72805   
     axis 0 0 0   XYZ
    dof rx ry rz
    limits (-20.0 45.0)
           (-30.0 30.0)
           (-30.0 30.0)
  end
  begin
     id 16
     name head
     direction 0.13001 0.989848 -0.0574291  
     length 1.767  
     axis 0 0 0   XYZ
    dof rx ry rz
    limits (-20.0 45.0)
           (-30.0 30.0)
           (-30.0 30.0)
  end
  begin
     id 17 
     name lclavicle
     direction 0.952951 0.290122 0.0878234  
     length 3.54654  
     axis 0 0 0   XYZ
    dof ry rz
    limits (-20.0 10.0)
           (0.0 20.0)
  end
  begin
     id 18 
     name lhumerus
     direction 1 -4.48957e-011 -4.56525e-028   
     length 5.19807   
     axis 180 -30 -90   XYZ
    dof rx ry rz
    limits (-60.0 90.0)
           (-90.0 90.0)
           (-90.0 90.0)
  end
  begin
     id 19
     name lradius
     direction 1 -4.48979e-011 -2.0317e-027   
     length 3.0937   
     axis 180 -30 -90   XYZ
    dof rx
    limits (-10.0 170.0)
  end
  begin
     id 20
     name lwrist
     direction 1 -4.48953e-011 -3.05809e-027   
     length 1.54685   
     axis 8.48514e-016 90 90   XYZ
    dof ry
    limits (-180.0 0.0)
 end
  begin
     id 21 
     name lhand
     direction 1 -4.48952e-011 -6.11639e-027   
     length 0.672632   
     axis 3.9013e-015 90 90   XYZ
    dof rx rz
    limits (-90.0 90.0)
           (-45.0 45.0)
  end
  begin
     id 22 
     name lfingers
     direction 1 -4.48925e-011 -1.22426e-026   
     length 0.542293   
     axis 7.80276e-015 90 90   XYZ
    dof rx
    limits (0.0 90.0)
  end
  begin
     id 23
     name lthumb
     direction 0.707107 -6.3486e-011 0.707107   
     length 0.778628   
     axis -90 45 5.37419e-014   XYZ
    dof rx rz
    limits (-45.0 45.0)
           (-45.0 45.0)
  end
  begin
     id 24 
     name rclavicle
     direction -0.960732 0.273675 -0.0457849   
     length 3.52079  
     axis 0 0 0   XYZ 
    dof ry rz
    limits (-10.0 20.0)
           (-20.0 0.0)
  end
  begin
     id 25 
     name rhumerus
     direction -1 -4.48976e-011 -1.63613e-027  
     length 5.45222   
     axis 180 30 90   XYZ
    dof rx ry rz
    limits (-90.0 60.0)
           (-90.0 90.0)
           (-90.0 90.0)
  end
  begin
     id 26 
     name rradius
     direction -1 -4.48957e-011 -7.00033e-028   
     length 3.01284   
     axis 180 30 90   XYZ
    dof rx
    limits (-10.0 170.0)
  end
  begin
     id 27 
     name rwrist
     direction -1 -4.48983e-011 -3.05543e-027   
     length 1.50642   
     axis 8.48514e-016 -90 -90   XYZ
    dof ry
    limits (-180.0 0.0)
  end
  begin
     id 28
     name rhand
     direction -1 -4.48984e-011 -6.11072e-027   
     length 0.622296   
     axis 3.9013e-015 -90 -90   XYZ
    dof rx rz
    limits (-90.0 90.0)
           (-45.0 45.0)
  end
  begin
     id 29
     name rfingers
     direction -1 -4.48865e-011 -1.22637e-026   
     length 0.501711   
     axis 7.80276e-015 -90 -90   XYZ
    dof rx
    limits (0.0 90.0)
  end
  begin
     id 30
     name rthumb
     direction -0.707107 -6.34932e-011 0.707107   
     length 0.72036   
     axis -90 -45 -5.37419e-014   XYZ
    dof rx rz
    limits (-45.0 45.0)
           (-45.0 45.0)
  end
:hierarchy
  begin
    root lhipjoint rhipjoint lowerback
    lhipjoint lfemur
    lfemur ltibia
    ltibia lfoot
    lfoot ltoes
    rhipjoint rfemur
    rfemur rtibia
    rtibia rfoot
    rfoot rtoes
    lowerback upperback
    upperback thorax
    thorax lowerneck lclavicle rclavicle
    lowerneck upperneck
    upperneck head
    lclavicle lhumerus
    lhumerus lradius
    lradius lwrist
    lwrist lhand lthumb
    lhand lfingers
    rclavicle rhumerus
    rhumerus rradius
    rradius rwrist
    rwrist rhand rthumb
    rhand rfingers
  end

#!OML:ASF H:\Not Pregnant\Project 1\Capture day 1\Session 1\non-pregnant.ASF
:FULLY-SPECIFIED
:DEGREES
180
root 6.02303 14.9165 29.8651 20.5402 -62.8205 -7.90925
lowerback 7.11551 0.669448 3.77422
upperback -8.1232 1.34467 0.413034
thorax -12.7666 0.266775 -1.89546
lowerneck 15.7778 -9.94877 -32.0566
upperneck 4.48718 -21.4612 34.5179
head 6.52565 -12.3857 16.787
rclavicle 4.0316e-015 -1.77912e-014
rhumerus -16.6572 5.50262 -81.4478
rradius 95.7983
rwrist 33.9521
rhand 4.95518 8.52237
rfingers 7.12502
rthumb 30.3272 -19.0052
lclavicle 4.0316e-015 -1.77912e-014
lhumerus -24.7244 -6.32313 76.3626
lradius 97.2838
lwrist 7.00037
lhand 4.13761 -11.8991
lfingers 7.12502
lthumb 29.5471 15.7693
rfemur -39.6144 0.039809 22.8552
rtibia 56.0163
rfoot -27.5066 -3.52887
rtoes -13.8031
lfemur -42.4413 3.64579 -17.5422
ltibia 56.0808
lfoot -25.1521 1.81683
ltoes -14.4074
181
root 6.02186 14.9121 29.8651 20.5215 -62.8303 -7.8865
lowerback 7.13172 0.663252 3.74821
upperback -8.12557 1.33314 0.407877
thorax -12.7804 0.263072 -1.88481
lowerneck 15.7684 -9.95687 -32.0213
upperneck 4.3284 -21.432 34.5824
head 6.47459 -12.3705 16.8096
rclavicle 2.54965e-014 -2.98177e-016
rhumerus -16.6559 5.54672 -81.4539
rradius 95.842
rwrist 33.9267
rhand 4.93938 8.5116
rfingers 7.12502
rthumb 30.3122 -19.0187
lclavicle 2.54965e-014 -2.98177e-016
lhumerus -24.6933 -6.33859 76.3309
lradius 97.3035
lwrist 7.00438
lhand 4.17828 -11.863
lfingers 7.12502
lthumb 29.5859 15.7985
rfemur -39.6601 0.070024 22.841
rtibia 56.1072
rfoot -27.5398 -3.561
rtoes -13.8062
lfemur -42.4805 3.65196 -17.554
ltibia 56.1589
lfoot -25.1778 1.84332
ltoes -14.4817
182
root 6.02083 14.9072 29.8651 20.4888 -62.8422 -7.84712
lowerback 7.15124 0.658333 3.71551
upperback -8.13003 1.32241 0.40069
thorax -12.7986 0.260127 -1.87284
lowerneck 15.7592 -9.96451 -31.9911
upperneck 4.16558 -21.4032 34.6533
head 6.42437 -12.3562 16.8362
rclavicle 7.41172e-015 -3.97569e-015
rhumerus -16.6583 5.5923 -81.4561
rradius 95.8838
rwrist 33.8981
rhand 4.9207 8.49535
rfingers 7.12502
rthumb 30.2943 -19.0382
lclavicle 7.41172e-015 -3.97569e-015
lhumerus -24.6627 -6.36095 76.2974
lradius 97.3215
lwrist 7.01912
lhand 4.23788 -11.834
lfingers 7.12502
lthumb 29.6428 15.8174
rfemur -39.7107 0.0983273 22.8168
rtibia 56.2048
rfoot -27.5772 -3.58419
rtoes -13.7817
lfemur -42.5228 3.65686 -17.5752
ltibia 56.2408
lfoot -25.2039 1.87373
ltoes -14.5645
183
root 6.01986 14.9019 29.8652 20.4742 -62.8523 -7.82857
lowerback 7.17369 0.655033 3.69348
upperback -8.13613 1.31571 0.396085
thorax -12.8203 0.258139 -1.86479
lowerneck 15.7536 -9.97177 -31.9657
upperneck 3.99631 -21.3755 34.7312
head 6.37399 -12.3433 16.8672
rclavicle 4.32139e-014 1.59028e-014
rhumerus -16.652 5.61506 -81.4651
rradius 95.9128
rwrist 33.8791
rhand 4.91374 8.50076
rfingers 7.12502
rthumb 30.2877 -19.034
lclavicle 4.32139e-014 1.59028e-014
lhumerus -24.6327 -6.39355 76.2638
lradius 97.3362
lwrist 7.03066
lhand 4.29969 -11.8081
lfingers 7.12502
lthumb 29.7018 15.8328
rfemur -39.7625 0.127716 22.803
rtibia 56.3062
rfoot -27.6167 -3.6084
rtoes -13.7634
lfemur -42.5702 3.67101 -17.5877
ltibia 56.3305
lfoot -25.235 1.89601
ltoes -14.6457
184
root 6.01898 14.8961 29.8652 20.4674 -62.8642 -7.81842
lowerback 7.1972 0.655504 3.67819
upperback -8.14278 1.31487 0.389592
thorax -12.8427 0.258182 -1.86365
lowerneck 15.7535 -9.97726 -31.947
upperneck 3.82024 -21.3484 34.82
head 6.32368 -12.332 16.9054
rclavicle 7.41793e-015 1.46107e-014
rhumerus -16.6452 5.62816 -81.4714
rradius 95.9381
rwrist 33.8598
rhand 4.90796 8.50693
rfingers 7.12502
rthumb 30.2822 -19.0289
lclavicle 7.41793e-015 1.46107e-014
lhumerus -24.5962 -6.43489 76.226
lradius 97.3451
lwrist 7.04525
lhand 4.37229 -11.7861
lfingers 7.12502
lthumb 29.7711 15.8424
rfemur -39.817 0.159067 22.7919
rtibia 56.4113
rfoot -27.6577 -3.63014
rtoes -13.7367
lfemur -42.6222 3.694 -17.5988
ltibia 56.4274
lfoot -25.2701 1.91661
ltoes -14.7292
185
root 6.01818 14.89 29.8651 20.4773 -62.8766 -7.82633
lowerback 7.22135 0.657332 3.6708
upperback -8.15009 1.31726 0.386
thorax -12.8662 0.25915 -1.86435
lowerneck 15.7544 -9.97789 -31.9406
upperneck 3.64342 -21.3175 34.9157
head 6.27446 -12.3199 16.9506
rclavicle -4.99446e-015 9.34288e-015
rhumerus -16.6358 5.63915 -81.4738
rradius 95.9606
rwrist 33.8426
rhand 4.90308 8.51888
rfingers 7.12502
rthumb 30.2775 -19.0178
lclavicle -4.99446e-015 9.34288e-015
lhumerus -24.5565 -6.47739 76.1855
lradius 97.3484
lwrist 7.05681
lhand 4.43741 -11.7665
lfingers 7.12502
lthumb 29.8332 15.8508
rfemur -39.8732 0.192899 22.7898
rtibia 56.5171
rfoot -27.6985 -3.65515
rtoes -13.7179
lfemur -42.6791 3.72273 -17.6014
ltibia 56.532
lfoot -25.3113 1.93599
ltoes -14.8091
186
root 6.01742 14.8838 29.865 20.4983 -62.8898 -7.84666
lowerback 7.24481 0.660737 3.67199
upperback -8.15688 1.32287 0.382247
thorax -12.8883 0.260876 -1.8706
lowerneck 15.7539 -9.97786 -31.9367
upperneck 3.46549 -21.2857 35.0136
head 6.22563 -12.3074 16.9976
rclavicle -4.10692e-015 -3.97569e-015
rhumerus -16.6226 5.64307 -81.476
rradius 95.9785
rwrist 33.8306
rhand 4.89833 8.5304
rfingers 7.12502
rthumb 30.273 -19.0071
lclavicle -4.10692e-015 -3.97569e-015
lhumerus -24.5146 -6.51734 76.1428
lradius 97.3461
lwrist 7.0577
lhand 4.49222 -11.7508
lfingers 7.12502
lthumb 29.8855 15.8571
rfemur -39.9295 0.227353 22.7935
rtibia 56.6224
rfoot -27.738 -3.68407
rtoes -13.7094
lfemur -42.7386 3.75398 -17.5988
ltibia 56.6414
lfoot -25.3559 1.95583
ltoes -14.8757
187
root 6.01687 14.8773 29.8646 20.53 -62.8987 -7.87719
lowerback 7.26996 0.661174 3.6773
upperback -8.16423 1.32538 0.381202
thorax -12.9124 0.260827 -1.87567
lowerneck 15.7488 -9.97429 -31.9416
upperneck 3.2912 -21.2506 35.1162
head 6.17954 -12.2937 17.0495
rclavicle 5.5054e-016 2.88238e-015
rhumerus -16.6043 5.65022 -81.4789
rradius 95.9932
rwrist 33.8258
rhand 4.89678 8.53912
rfingers 7.12502
rthumb 30.2715 -18.9986
lclavicle 5.5054e-016 2.88238e-015
lhumerus -24.4733 -6.54916 76.0969
lradius 97.3397
lwrist 7.0514
lhand 4.54053 -11.7429
lfingers 7.12502
lthumb 29.9316 15.8568
rfemur -39.9883 0.25705 22.8054
rtibia 56.7263
rfoot -27.7763 -3.71614
rtoes -13.7157
lfemur -42.8031 3.78301 -17.5891
ltibia 56.7542
lfoot -25.4018 1.97369
ltoes -14.9373
188
root 6.01638 14.871 29.8641 20.5625 -62.9076 -7.90704
lowerback 7.29347 0.660045 3.68187
upperback -8.17098 1.32565 0.381
thorax -12.9349 0.259879 -1.87897
lowerneck 15.7369 -9.97284 -31.946
upperneck 3.12048 -21.2169 35.2159
head 6.13583 -12.2799 17.099
rclavicle -1.08887e-013 -2.65378e-014
rhumerus -16.5794 5.65649 -81.4852
rradius 95.9998
rwrist 33.8307
rhand 4.89451 8.54928
rfingers 7.12502
rthumb 30.2693 -18.9889
lclavicle -1.08887e-013 -2.65378e-014
lhumerus -24.4365 -6.56522 76.0521
lradius 97.3315
lwrist 7.0303
lhand 4.59455 -11.7562
lfingers 7.12502
lthumb 29.9832 15.8342
rfemur -40.0494 0.283376 22.8184
rtibia 56.8295
rfoot -27.8136 -3.75106
rtoes -13.7415
lfemur -42.8693 3.80504 -17.5779
ltibia 56.8679
lfoot -25.4463 1.99391
ltoes -14.9847
189
root 6.01602 14.8647 29.8635 20.5953 -62.9157 -7.93642
lowerback 7.31758 0.658426 3.68443
upperback -8.17779 1.32523 0.382737
thorax -12.958 0.258892 -1.8789
lowerneck 15.7193 -9.97514 -31.9501
upperneck 2.95418 -21.1878 35.3128
head 6.09585 -12.2678 17.1457
rclavicle -3.97701e-014 -1.97791e-014
rhumerus -16.5539 5.66448 -81.4891
rradius 96.002
rwrist 33.845
rhand 4.89086 8.55834
rfingers 7.12502
rthumb 30.2659 -18.9805
lclavicle -3.97701e-014 -1.97791e-014
lhumerus -24.4061 -6.56109 76.0162
lradius 97.3232
lwrist 6.98835
lhand 4.6634 -11.7864
lfingers 7.12502
lthumb 30.0489 15.792
rfemur -40.113 0.30391 22.8331
rtibia 56.934
rfoot -27.8526 -3.78183
rtoes -13.768
lfemur -42.9374 3.82369 -17.5652
ltibia 56.9826
lfoot -25.4907 2.00749
ltoes -15.016
190
root 6.01576 14.8583 29.8626 20.6176 -62.9262 -7.95273
lowerback 7.34066 0.65723 3.67979
upperback -8.18355 1.32417 0.382543
thorax -12.9793 0.258231 -1.87678
lowerneck 15.6972 -9.98397 -31.9488
upperneck 2.78832 -21.1657 35.4065
head 6.05847 -12.2586 17.1875
rclavicle 2.33852e-014 -7.25564e-015
rhumerus -16.5298 5.67532 -81.4894
rradius 96.003
rwrist 33.8626
rhand 4.88119 8.5672
rfingers 7.12502
rthumb 30.2566 -18.9733
lclavicle 2.33852e-014 -7.25564e-015
lhumerus -24.3761 -6.55063 75.9815
lradius 97.3132
lwrist 6.9359
lhand 4.73905 -11.8275
lfingers 7.12502
lthumb 30.121 15.7378
rfemur -40.1817 0.321495 22.8422
rtibia 57.0428
rfoot -27.8935 -3.80923
rtoes -13.7917
lfemur -43.0079 3.84332 -17.5591
ltibia 57.0978
lfoot -25.5351 2.01509
ltoes -15.0357
